<svg width="279" height="134" viewBox="0 0 279 134" fill="none" xmlns="http://www.w3.org/2000/svg">
<path d="M29.562 78.092C24.57 78.092 20.176 76.87 16.38 74.426C12.584 71.93 9.62 68.498 7.488 64.13C5.356 59.71 4.29 54.614 4.29 48.842C4.29 43.07 5.356 38 7.488 33.632C9.62 29.212 12.584 25.78 16.38 23.336C20.176 20.84 24.57 19.592 29.562 19.592C34.554 19.592 38.922 20.84 42.666 23.336C46.462 25.78 49.4 29.186 51.48 33.554C53.612 37.922 54.678 43.018 54.678 48.842C54.678 54.614 53.612 59.71 51.48 64.13C49.4 68.498 46.462 71.93 42.666 74.426C38.922 76.87 34.554 78.092 29.562 78.092ZM29.484 71.072C33.072 71.072 36.192 70.162 38.844 68.342C41.496 66.47 43.55 63.87 45.006 60.542C46.462 57.162 47.19 53.262 47.19 48.842C47.19 44.37 46.462 40.47 45.006 37.142C43.55 33.814 41.496 31.24 38.844 29.42C36.192 27.548 33.098 26.612 29.562 26.612C26.026 26.612 22.906 27.548 20.202 29.42C17.55 31.24 15.47 33.814 13.962 37.142C12.506 40.47 11.778 44.37 11.778 48.842C11.778 53.262 12.506 57.162 13.962 60.542C15.418 63.87 17.472 66.47 20.124 68.342C22.828 70.162 25.948 71.072 29.484 71.072ZM61.5097 77.312C60.3137 76.896 59.2737 76.272 58.3897 75.44C57.5577 74.556 57.0117 73.516 56.7517 72.32C57.6877 71.436 58.7797 70.318 60.0277 68.966C61.2757 67.614 62.4977 66.002 63.6937 64.13C64.8897 62.206 65.8777 60.048 66.6577 57.656C67.4897 55.264 67.9057 52.586 67.9057 49.622V40.184C68.3737 40.028 68.9197 39.898 69.5437 39.794C70.1677 39.69 70.8177 39.638 71.4937 39.638C72.6897 39.638 73.8597 39.82 75.0037 40.184V63.35C75.0037 66.21 75.3677 68.264 76.0957 69.512C76.8757 70.76 78.0977 71.384 79.7617 71.384C80.4897 71.384 81.0357 71.696 81.3997 72.32C81.8157 72.944 82.0237 73.776 82.0237 74.816C82.0237 75.648 81.7897 76.402 81.3217 77.078C80.9057 77.754 80.2037 78.092 79.2157 78.092C73.3917 78.092 69.8037 75.31 68.4517 69.746C66.2677 73.074 63.9537 75.596 61.5097 77.312ZM71.5717 28.952C70.1157 28.952 68.8677 28.432 67.8277 27.392C66.7877 26.352 66.2677 25.104 66.2677 23.648C66.2677 22.088 66.7617 20.814 67.7497 19.826C68.7897 18.838 70.0637 18.344 71.5717 18.344C73.1317 18.344 74.4057 18.838 75.3937 19.826C76.3817 20.814 76.8757 22.088 76.8757 23.648C76.8757 25.156 76.3557 26.43 75.3157 27.47C74.3277 28.458 73.0797 28.952 71.5717 28.952ZM79.2041 78.092C78.5281 78.092 77.9821 77.78 77.5661 77.156C77.1501 76.532 76.9421 75.726 76.9421 74.738C76.9421 72.502 77.8781 71.384 79.7501 71.384C81.4141 71.384 83.2601 70.37 85.2881 68.342C87.3161 66.262 89.6821 62.934 92.3861 58.358L100.732 44.24C100.628 43.512 100.576 42.732 100.576 41.9C100.576 39.3 101.044 37.376 101.98 36.128C102.968 34.88 103.774 34.126 104.398 33.866C105.282 33.658 106.218 33.684 107.206 33.944C108.246 34.152 109.182 34.516 110.014 35.036C110.846 35.556 111.418 36.18 111.73 36.908C111.522 37.844 111.132 38.962 110.56 40.262C109.988 41.562 109.078 43.304 107.83 45.488C108.194 46.06 108.662 46.632 109.234 47.204C109.806 47.776 110.508 48.4 111.34 49.076L117.268 53.912C119.4 55.628 120.986 57.422 122.026 59.294C123.118 61.114 123.664 63.168 123.664 65.456C123.664 68.212 122.884 70.656 121.324 72.788C121.584 73.36 121.714 74.036 121.714 74.816C121.714 75.804 121.454 76.584 120.934 77.156C120.466 77.78 119.79 78.092 118.906 78.092C118.074 78.092 117.268 78.04 116.488 77.936C115.708 77.832 114.85 77.702 113.914 77.546C112.51 77.91 111.028 78.092 109.468 78.092C107.648 78.092 105.828 77.806 104.008 77.234C102.188 76.714 100.29 75.856 98.3141 74.66C98.2101 71.904 99.2501 69.876 101.434 68.576C104.294 70.448 106.998 71.384 109.546 71.384C111.73 71.384 113.472 70.812 114.772 69.668C116.072 68.472 116.722 66.964 116.722 65.144C116.722 62.856 115.474 60.724 112.978 58.748L107.05 54.068C106.01 53.236 105.074 52.378 104.242 51.494L96.4421 64.676C93.5821 69.512 90.8261 72.97 88.1741 75.05C85.5741 77.078 82.5841 78.092 79.2041 78.092ZM118.939 78.092C118.263 78.092 117.717 77.78 117.301 77.156C116.833 76.532 116.599 75.726 116.599 74.738C116.599 72.554 117.561 71.462 119.485 71.462C123.229 71.462 126.661 70.162 129.781 67.562C132.901 64.91 135.683 61.14 138.127 56.252V16.238C138.127 11.038 139.219 7.034 141.403 4.226C143.639 1.418 146.863 0.0399959 151.075 0.0919952C154.923 0.143995 157.913 1.59999 160.045 4.45999C162.229 7.32 163.321 11.038 163.321 15.614C163.321 23.206 161.033 31.656 156.457 40.964C156.821 40.912 157.185 40.886 157.549 40.886C161.449 40.886 164.543 42.264 166.831 45.02C169.171 47.776 170.341 51.468 170.341 56.096V62.804C170.341 65.82 170.705 68.004 171.433 69.356C172.213 70.708 173.487 71.384 175.255 71.384C176.087 71.384 176.685 71.722 177.049 72.398C177.413 73.022 177.595 73.828 177.595 74.816C177.595 75.804 177.335 76.584 176.815 77.156C176.347 77.78 175.671 78.092 174.787 78.092C171.043 78.092 168.157 76.896 166.129 74.504C164.153 72.06 163.165 68.628 163.165 64.208V55.94C163.165 53.288 162.567 51.234 161.371 49.778C160.227 48.27 158.589 47.516 156.457 47.516C154.377 47.516 152.505 48.218 150.841 49.622C149.177 50.974 147.851 52.846 146.863 55.238C145.875 57.63 145.355 60.386 145.303 63.506V77C144.783 77.156 144.211 77.286 143.587 77.39C142.963 77.494 142.365 77.546 141.793 77.546C140.597 77.546 139.375 77.364 138.127 77V68.264C135.579 71.592 132.641 74.062 129.313 75.674C125.985 77.286 122.527 78.092 118.939 78.092ZM145.069 16.16V46.892C148.709 41.38 151.491 35.92 153.415 30.512C155.391 25.104 156.379 20.112 156.379 15.536C156.379 12.624 155.885 10.414 154.897 8.906C153.961 7.346 152.583 6.566 150.763 6.566C146.967 6.566 145.069 9.764 145.069 16.16ZM175.346 71.384C176.438 71.384 177.608 71.046 178.856 70.37C180.104 69.694 181.274 68.654 182.366 67.25C183.666 65.482 184.602 63.454 185.174 61.166C185.798 58.878 186.188 56.564 186.344 54.224V40.184C186.812 40.028 187.358 39.898 187.982 39.794C188.606 39.69 189.256 39.638 189.932 39.638C191.128 39.638 192.298 39.82 193.442 40.184V62.648C193.442 65.404 193.858 67.562 194.69 69.122C195.574 70.63 197.03 71.384 199.058 71.384C199.942 71.384 200.54 71.748 200.852 72.476C201.164 73.204 201.32 73.984 201.32 74.816C201.32 75.648 201.086 76.402 200.618 77.078C200.202 77.754 199.5 78.092 198.512 78.092C193.104 78.092 189.594 75.544 187.982 70.448C187.254 71.644 186.474 72.658 185.642 73.49C184.238 74.894 182.6 76.012 180.728 76.844C178.908 77.676 176.932 78.092 174.8 78.092C174.072 78.092 173.526 77.728 173.162 77C172.746 76.324 172.538 75.57 172.538 74.738C172.538 73.854 172.772 73.074 173.24 72.398C173.656 71.722 174.358 71.384 175.346 71.384ZM190.01 28.952C188.554 28.952 187.306 28.432 186.266 27.392C185.226 26.352 184.706 25.104 184.706 23.648C184.706 22.088 185.2 20.814 186.188 19.826C187.228 18.838 188.502 18.344 190.01 18.344C191.57 18.344 192.844 18.838 193.832 19.826C194.82 20.814 195.314 22.088 195.314 23.648C195.314 25.156 194.794 26.43 193.754 27.47C192.766 28.458 191.518 28.952 190.01 28.952ZM199.035 71.384C200.127 71.384 201.297 71.046 202.545 70.37C203.793 69.694 204.963 68.654 206.055 67.25C207.355 65.482 208.291 63.454 208.863 61.166C209.487 58.878 209.877 56.564 210.033 54.224V40.184C210.501 40.028 211.047 39.898 211.671 39.794C212.295 39.69 212.945 39.638 213.621 39.638C214.817 39.638 215.987 39.82 217.131 40.184V62.648C217.131 65.404 217.547 67.562 218.379 69.122C219.263 70.63 220.719 71.384 222.747 71.384C223.319 71.384 223.943 71.254 224.619 70.994C225.295 70.734 225.997 70.344 226.725 69.824C227.609 70.24 228.337 70.968 228.909 72.008C229.481 72.996 229.741 73.984 229.689 74.972C228.857 75.908 227.791 76.662 226.491 77.234C225.191 77.806 223.787 78.092 222.279 78.092H222.201C216.793 78.092 213.283 75.544 211.671 70.448C210.943 71.644 210.163 72.658 209.331 73.49C207.927 74.894 206.289 76.012 204.417 76.844C202.597 77.676 200.621 78.092 198.489 78.092C197.761 78.092 197.215 77.728 196.851 77C196.435 76.324 196.227 75.57 196.227 74.738C196.227 73.854 196.461 73.074 196.929 72.398C197.345 71.722 198.047 71.384 199.035 71.384ZM213.699 28.952C212.243 28.952 210.995 28.432 209.955 27.392C208.915 26.352 208.395 25.104 208.395 23.648C208.395 22.088 208.889 20.814 209.877 19.826C210.917 18.838 212.191 18.344 213.699 18.344C215.259 18.344 216.533 18.838 217.521 19.826C218.509 20.814 219.003 22.088 219.003 23.648C219.003 25.156 218.483 26.43 217.443 27.47C216.455 28.458 215.207 28.952 213.699 28.952Z" fill="#3D5300"/>
<path d="M111.12 104.68C112.64 104.64 113.92 104.56 114.72 104.48C117.28 104.2 124.84 103.48 132.2 102.84C136.6 102.48 140.32 102.24 143 102.16L143.04 105.36C140.72 105.32 137.24 105.4 135.2 105.96C129.48 107.8 126 113.92 126 118.64C126 126.44 133.32 128.96 139.8 129.2L138.64 132.48C131.24 132.2 122.84 128.28 122.84 119.32C122.84 113.12 126.64 108 130.28 105.84C126 106.28 115.8 107.28 111.48 108.2L111.12 104.68ZM137.24 110.24C138.16 111.56 139.68 114.04 140.56 115.84L138.48 116.76C137.56 114.84 136.44 112.8 135.24 111.12L137.24 110.24ZM141.6 108.56C142.6 109.88 144.16 112.32 145.08 114.08L143.04 115.08C142.08 113.16 140.88 111.16 139.64 109.48L141.6 108.56ZM173.08 99.32C173 99.8 172.88 101.36 172.88 101.84C172.76 104.44 172.84 112.16 172.88 115.36L169.84 113.8C169.84 112.04 169.8 104.08 169.68 101.88C169.6 100.8 169.48 99.68 169.4 99.32H173.08ZM151.8 104.92C157.24 104.84 167.24 104.48 173.4 104.48C178.28 104.48 183.24 104.48 185.12 104.52L185.08 107.48C182.84 107.36 179.24 107.28 173.36 107.28C166.48 107.28 157.92 107.56 151.88 108L151.8 104.92ZM172.8 116.52C172.8 121.88 170.32 124.56 166.68 124.56C163.32 124.56 160.08 122.2 160.08 117.84C160.08 113.88 163.36 110.92 167.16 110.92C171.8 110.92 174.16 114.36 174.16 118.96C174.16 124.4 171.52 130.4 162.24 133.16L159.56 130.56C166.84 128.84 171.08 125.28 171.08 118.68C171.08 115.08 169.32 113.56 167.16 113.56C165.04 113.56 163.08 115.2 163.08 117.8C163.08 120.32 164.96 121.76 167.16 121.76C169.64 121.76 171.24 119.68 170.6 115.4L172.8 116.52ZM205.48 99.8C205.32 100.56 205.16 101.4 205 102.2C204.76 103.64 204.2 106.92 203.68 109.4C202.32 115 199.44 124.96 194.92 132.28L191.68 130.96C196.24 124.88 199.44 114.2 200.52 109.28C201.24 106.12 201.8 102.52 201.8 99.44L205.48 99.8ZM219.28 104.08C221.76 107.32 225.24 114.68 226.56 118.4L223.48 119.88C222.28 115.76 219.16 108.68 216.36 105.4L219.28 104.08ZM191.08 108.6C192.36 108.64 193.4 108.64 194.68 108.6C197.64 108.52 205.76 107.6 208.48 107.6C212.04 107.6 214.96 108.96 214.96 114.4C214.96 119.16 214.32 125.52 212.68 128.84C211.4 131.52 209.4 132.16 206.84 132.16C205.28 132.16 203.4 131.88 202.12 131.6L201.6 128.24C203.28 128.76 205.36 129.08 206.48 129.08C207.96 129.08 209.16 128.76 210 127C211.28 124.32 211.88 119.08 211.88 114.76C211.88 111.12 210.2 110.44 207.64 110.44C204.96 110.44 197.48 111.32 195.04 111.56C194.12 111.68 192.44 111.88 191.44 112.04L191.08 108.6Z" fill="#ABBA7C"/>
<path d="M253.263 89.4378C252.368 89.0347 251.507 88.5062 250.678 87.8523L251.756 85.4598C252.702 83.3591 253.866 81.9179 255.247 81.1364C256.668 80.3723 258.167 79.9011 259.745 79.7227L261.826 79.4666C263.573 79.2241 264.892 78.7888 265.783 78.1607C266.731 77.5113 267.45 76.642 267.941 75.5527C268.747 73.7632 268.848 72.0308 268.246 70.3556C267.643 68.6804 266.311 67.3784 264.249 66.4497C262.538 65.6786 260.83 65.4708 259.125 65.8262C257.439 66.1427 256.105 66.9224 255.124 68.1651C253.43 67.3552 251.965 66.0872 250.73 64.3612C251.542 63.1826 252.704 62.1616 254.216 61.2984C255.784 60.4138 257.626 59.9096 259.74 59.7859C261.855 59.6621 264.157 60.161 266.647 61.2825C269.526 62.5792 271.567 64.1771 272.771 66.0763C274.013 67.993 274.638 69.9824 274.645 72.0446C274.708 74.0854 274.354 75.9616 273.583 77.6733C272.76 79.5017 271.795 80.9157 270.69 81.9153C269.641 82.8934 268.457 83.6002 267.138 84.0355C265.836 84.4319 264.416 84.728 262.877 84.924L261.141 85.1947C260.057 85.3149 259.246 85.5578 258.707 85.9234C258.168 86.2889 257.635 87.0552 257.11 88.2223L256.163 90.323C255.202 90.1709 254.236 89.8758 253.263 89.4378ZM246.549 104.032C245.46 103.541 244.701 102.732 244.274 101.603C243.864 100.436 243.904 99.3075 244.395 98.2182C244.885 97.1289 245.695 96.3705 246.823 95.9429C247.952 95.5153 249.061 95.5469 250.15 96.0375C251.239 96.5281 251.998 97.3377 252.425 98.4662C252.892 99.6123 252.88 100.73 252.389 101.819C251.898 102.908 251.061 103.678 249.876 104.127C248.747 104.554 247.638 104.523 246.549 104.032Z" fill="#F09319"/>
</svg>
